<svg width="27" height="32" viewBox="0 0 27 32" fill="none" xmlns="http://www.w3.org/2000/svg">
<g clip-path="url(#clip0_281_83)">
<path d="M26.9274 15.9666C26.9274 17.0355 26.2354 17.8727 25.4511 17.8727H23.9748L24.0071 27.3856C24.0071 27.5459 23.9979 27.7062 23.984 27.8665V28.8285C23.984 30.1408 23.1582 31.2037 22.1387 31.2037H21.4005C21.3498 31.2037 21.299 31.2037 21.2483 31.1978C21.1837 31.2037 21.1191 31.2037 21.0545 31.2037L19.5552 31.1978H18.448C17.4284 31.1978 16.6026 30.1349 16.6026 28.8226V27.3974V23.5971C16.6026 22.546 15.9429 21.6969 15.1263 21.6969H12.1738C11.3572 21.6969 10.6975 22.546 10.6975 23.5971V27.3974V28.8226C10.6975 30.1349 9.87171 31.1978 8.85216 31.1978H7.74495H6.27328C6.20408 31.1978 6.13488 31.1919 6.06568 31.1859C6.01032 31.1919 5.95496 31.1978 5.8996 31.1978H5.16146C4.1419 31.1978 3.31611 30.1349 3.31611 28.8226V22.1719C3.31611 22.1185 3.31611 22.0591 3.32072 22.0056V17.8668H1.84444C1.01404 17.8668 0.368164 17.0355 0.368164 15.9607C0.368164 15.4262 0.506565 14.9512 0.829501 14.5355L12.6536 1.26985C12.9765 0.854181 13.3456 0.7948 13.6685 0.7948C13.9915 0.7948 14.3605 0.913562 14.6373 1.21047L26.4199 14.5415C26.789 14.9571 26.9735 15.4322 26.9274 15.9666Z" fill="black"/>
</g>
<defs>
<clipPath id="clip0_281_83">
<rect width="26.573" height="30.403" fill="white" transform="translate(0.36377 0.7948)"/>
</clipPath>
</defs>
</svg>
